<?xml version="1.0" encoding="UTF-8"?>
<svg version="1.1" xmlns="http://www.w3.org/2000/svg" width="512" height="512">
<path d="M0 0 C0.67544861 -0.0087616 1.35089722 -0.01752319 2.04681396 -0.02655029 C4.26885132 -0.04847103 6.48888166 -0.03402082 8.7109375 -0.01708984 C10.26123434 -0.02046017 11.81152859 -0.02531459 13.36181641 -0.03158569 C16.6067019 -0.03894698 19.85089795 -0.0282766 23.09570312 -0.00488281 C27.2489408 0.02360583 31.40056301 0.00719768 35.55374146 -0.02274513 C38.75378527 -0.04083902 41.95344793 -0.03505079 45.15350342 -0.02210617 C46.68447055 -0.01877787 48.21547262 -0.02283903 49.74639893 -0.03450394 C51.8891524 -0.04724882 54.02931399 -0.02779228 56.171875 0 C57.3892334 0.00397797 58.6065918 0.00795593 59.86083984 0.01205444 C64.08848597 0.84434227 65.55404181 2.19467149 68.0859375 5.64697266 C68.68721008 8.71589661 68.68721008 8.71589661 68.65356445 12.18139648 C68.6531868 13.48236771 68.65280914 14.78333893 68.65242004 16.12373352 C68.62689045 17.53383348 68.60081053 18.94392357 68.57421875 20.35400391 C68.56488653 21.80416137 68.55777235 23.25433465 68.55278015 24.70451355 C68.53374185 28.51073165 68.48467056 32.31598697 68.42926025 36.12182617 C68.37799805 40.00963315 68.35525137 43.89759659 68.33007812 47.78564453 C68.27654686 55.4065249 68.19127488 63.02661358 68.0859375 70.64697266 C69.02381104 70.94120117 69.96168457 71.23542969 70.92797852 71.53857422 C74.29040279 72.71873705 76.3032673 74.12208153 79.0234375 76.39697266 C79.88839844 77.12013672 80.75335938 77.84330078 81.64453125 78.58837891 C82.45019531 79.26771484 83.25585938 79.94705078 84.0859375 80.64697266 C84.69566406 81.10974609 85.30539063 81.57251953 85.93359375 82.04931641 C97.66502495 91.17376289 105.98574996 105.83443331 110.0390625 119.97119141 C111.2962235 123.18445739 112.354106 123.88906493 115.3359375 125.52197266 C122.20818934 129.74934818 125.84383907 134.93722725 128.0859375 142.64697266 C128.34008783 145.52802807 128.34008783 145.52802807 128.34599972 148.58749485 C128.35306531 149.75981177 128.3601309 150.93212869 128.3674106 152.13997036 C128.36499552 153.41865945 128.36258043 154.69734853 128.36009216 156.01478577 C128.36454668 157.39408691 128.36986143 158.77338549 128.37596089 160.15268034 C128.39012472 163.93761662 128.39180449 167.72247073 128.39136398 171.50742972 C128.39301353 175.59131987 128.40608228 179.67517629 128.41755676 183.75904846 C128.44039118 192.6843636 128.44832505 201.60965493 128.45338321 210.53499532 C128.45664072 216.10677841 128.46316335 221.6785546 128.4703846 227.25033379 C128.4899451 242.67531264 128.50635366 258.10028508 128.50926113 273.52527714 C128.5094487 274.51199076 128.50963627 275.49870438 128.50982952 276.51531842 C128.51019578 278.51561415 128.51055947 280.51590988 128.51092064 282.51620562 C128.51110345 283.5091561 128.51128626 284.50210659 128.51147461 285.52514648 C128.51174543 287.01638764 128.51174543 287.01638764 128.51202173 288.53775489 C128.51556653 304.66157244 128.54261045 320.78525671 128.5799725 336.909028 C128.61801927 353.46054089 128.63741832 370.01198756 128.63772064 386.56354517 C128.63830588 395.85785538 128.64684092 405.1520064 128.67571831 414.44627571 C128.70018318 422.35666546 128.70754803 430.26683791 128.69247078 438.17725522 C128.68528283 442.21443162 128.68623991 446.25117847 128.70888138 450.28830719 C128.72940247 453.98264718 128.72693667 457.67622553 128.70600653 461.37055665 C128.700834 463.34297094 128.72034338 465.315402 128.74066824 467.28771836 C128.6599408 475.72731635 128.6599408 475.72731635 126.03381443 479.93484211 C122.38078451 482.05652638 119.42061778 482.34552831 115.30517578 482.28189087 C114.52855654 482.28969082 113.75193729 482.29749078 112.95178413 482.30552709 C110.35278835 482.32545062 107.7552563 482.30968206 105.15625 482.29394531 C103.29171901 482.3007213 101.42719471 482.30962433 99.56268311 482.32049561 C94.50065465 482.3432977 89.43913549 482.33444878 84.37709808 482.31860018 C79.08097455 482.30594596 73.78489477 482.31767997 68.48876953 482.32553101 C59.59464688 482.33462895 50.70073177 482.3226358 41.80664062 482.29882812 C31.5221525 482.27161664 21.23815997 482.2804307 10.95368385 482.30796015 C2.12550932 482.33064604 -6.70251596 482.33385383 -15.53071022 482.32076681 C-20.80422719 482.31296946 -26.07751116 482.31193858 -31.35101318 482.32844925 C-36.30881716 482.3428871 -41.26598186 482.33288468 -46.22371674 482.30397797 C-48.04379972 482.29736351 -49.86393646 482.29927098 -51.68399811 482.31029129 C-54.16782653 482.32394469 -56.64960334 482.30683581 -59.13330078 482.28189087 C-60.21525884 482.29862128 -60.21525884 482.29862128 -61.31907463 482.31568968 C-64.74628848 482.24886538 -66.89204266 481.65978797 -69.86025715 479.93231869 C-73.13786201 474.6893359 -72.60542367 469.50830785 -72.55570984 463.44651794 C-72.5621877 462.07306006 -72.57084172 460.69961101 -72.58148414 459.32617909 C-72.60431857 455.55231932 -72.59590626 451.77907535 -72.58234489 448.00519454 C-72.5731005 443.93475113 -72.59257395 439.86443099 -72.60832214 435.79402161 C-72.63443514 427.81825324 -72.63331307 419.8427101 -72.62228396 411.86691522 C-72.61372806 405.38160815 -72.61455435 398.89636628 -72.62207985 392.41105843 C-72.62313474 391.4882299 -72.62418963 390.56540137 -72.62527648 389.61460834 C-72.62744742 387.73984676 -72.6296342 385.86508521 -72.63183663 383.99032367 C-72.65127736 366.40017088 -72.63926039 348.81014435 -72.61705068 331.22000188 C-72.59881887 316.13917215 -72.60967488 301.05858748 -72.64135742 285.9777832 C-72.67815408 268.461714 -72.69512812 250.94579787 -72.68194515 233.42968994 C-72.68060408 231.55965907 -72.67929509 229.68962817 -72.67801857 227.81959724 C-72.6773879 226.8995479 -72.67675724 225.97949855 -72.67610746 225.03156893 C-72.67308439 218.56044766 -72.68432272 212.08944209 -72.70126915 205.61834526 C-72.72163535 197.72234678 -72.72066273 189.82669358 -72.69263675 181.93071293 C-72.67890015 177.90477856 -72.67460073 173.87944608 -72.69658661 169.8535347 C-72.71648389 166.16111105 -72.70822848 162.46981509 -72.67839227 158.77746821 C-72.66962466 156.82311937 -72.69006488 154.86870518 -72.71186084 152.91445822 C-72.59456687 143.67234825 -70.42293915 135.53139291 -64.00685614 128.58091539 C-61.74366938 126.52701411 -59.71760226 124.95228739 -56.84765625 123.86181641 C-53.99404246 122.06893986 -53.65174988 119.99267252 -52.6015625 116.83447266 C-45.88346985 98.42042352 -34.62106805 83.14851901 -17.9140625 72.64697266 C-15.92469558 71.94921645 -13.92565423 71.2778 -11.9140625 70.64697266 C-11.93071709 69.44213982 -11.93071709 69.44213982 -11.94770813 68.21296692 C-12.04797863 60.63576424 -12.12406142 53.05888415 -12.17312336 45.48119068 C-12.19919503 41.58556075 -12.23454677 37.69047992 -12.29125977 33.79516602 C-12.34566914 30.0344524 -12.37550133 26.27426621 -12.38844872 22.51318932 C-12.39767285 21.07982773 -12.41568621 19.64649437 -12.44271278 18.21335793 C-12.47911009 16.20299159 -12.48110577 14.19209219 -12.48168945 12.18139648 C-12.49834404 10.46597404 -12.49834404 10.46597404 -12.51533508 8.71589661 C-11.13710532 1.68134615 -6.6094238 0.02159764 0 0 Z M8.0859375 20.64697266 C8.0859375 34.50697266 8.0859375 48.36697266 8.0859375 62.64697266 C11.5509375 62.15197266 11.5509375 62.15197266 15.0859375 61.64697266 C17.12627297 61.56098524 19.16879219 61.51644517 21.2109375 61.51416016 C22.32984375 61.51287109 23.44875 61.51158203 24.6015625 61.51025391 C26.32632813 61.51605469 26.32632813 61.51605469 28.0859375 61.52197266 C29.23578125 61.51810547 30.385625 61.51423828 31.5703125 61.51025391 C33.24867188 61.5121875 33.24867188 61.5121875 34.9609375 61.51416016 C36.47300781 61.51585205 36.47300781 61.51585205 38.015625 61.51757812 C41.39044463 61.65980573 44.74207095 62.16927744 48.0859375 62.64697266 C48.0859375 48.78697266 48.0859375 34.92697266 48.0859375 20.64697266 C34.8859375 20.64697266 21.6859375 20.64697266 8.0859375 20.64697266 Z M-21.5 103.68212891 C-27.990377 111.40899026 -27.990377 111.40899026 -30.9140625 120.64697266 C8.0259375 120.64697266 46.9659375 120.64697266 87.0859375 120.64697266 C82.17863508 105.92506541 70.35816647 94.28623097 56.66015625 87.30712891 C29.98191576 74.91559644 -2.19383604 81.02217513 -21.5 103.68212891 Z M-48.9140625 143.64697266 C-53.88365899 153.97340229 -53.88365899 153.97340229 -51.9140625 180.64697266 C0.8859375 180.64697266 53.6859375 180.64697266 108.0859375 180.64697266 C110.05553399 153.97340229 110.05553399 153.97340229 105.0859375 143.64697266 C98.89313427 139.47731232 91.78412021 140.22428164 84.55078125 140.25878906 C83.18180931 140.25471909 81.81284066 140.24937483 80.44387817 140.24285889 C76.74137885 140.22922989 73.03913146 140.23446551 69.33662796 140.24399614 C65.45349725 140.25161574 61.57038746 140.24454076 57.68725586 140.23983765 C51.16744126 140.23438677 44.64772877 140.24155411 38.12792969 140.25585938 C30.60077831 140.27218465 23.07387075 140.26689567 15.54672527 140.25038016 C9.0726218 140.23674619 2.59859154 140.23485495 -3.87552166 140.24269617 C-7.73721498 140.24736221 -11.59879387 140.24802709 -15.46047974 140.2380867 C-19.09182213 140.2293914 -22.72285156 140.23548529 -26.35416031 140.25276947 C-28.31486842 140.25859868 -30.27560314 140.24974067 -32.23629761 140.24038696 C-41.05210159 140.20256411 -41.05210159 140.20256411 -48.9140625 143.64697266 Z M-51.9140625 200.64697266 C-51.9140625 286.77697266 -51.9140625 372.90697266 -51.9140625 461.64697266 C0.8859375 461.64697266 53.6859375 461.64697266 108.0859375 461.64697266 C108.0859375 448.44697266 108.0859375 435.24697266 108.0859375 421.64697266 C104.61795654 421.6219165 101.14997559 421.59686035 97.5769043 421.57104492 C86.13755405 421.48768694 74.69824828 421.39903573 63.25895977 421.3076334 C56.32117586 421.25232901 49.3833868 421.19885158 42.44555664 421.1496582 C35.75416445 421.10220711 29.06282982 421.04968715 22.37150002 420.99403191 C19.8145661 420.9736016 17.25761788 420.95488965 14.7006588 420.93789864 C11.12810451 420.91386971 7.55564924 420.88381288 3.9831543 420.85229492 C2.91860519 420.84653946 1.85405609 420.840784 0.75724792 420.83485413 C-0.21450378 420.82506531 -1.18625549 420.81527649 -2.18745422 420.80519104 C-3.45538047 420.79551221 -3.45538047 420.79551221 -4.74892139 420.78563786 C-6.9140625 420.64697266 -6.9140625 420.64697266 -9.9140625 419.64697266 C-10.81737297 416.93704125 -11.04035135 415.37223295 -11.04345703 412.59033203 C-11.04660919 411.77939087 -11.04976135 410.96844971 -11.05300903 410.13293457 C-11.0509848 409.26100464 -11.04896057 408.38907471 -11.046875 407.49072266 C-11.04783173 406.59204468 -11.04878845 405.6933667 -11.04977417 404.76745605 C-11.05045455 402.86775645 -11.04861016 400.96805451 -11.04443359 399.06835938 C-11.03908335 396.15831283 -11.04438339 393.24842064 -11.05078125 390.33837891 C-11.05012044 388.49332648 -11.04883923 386.64827415 -11.046875 384.80322266 C-11.04889923 383.93129272 -11.05092346 383.05936279 -11.05300903 382.16101074 C-11.04828079 380.944599 -11.04828079 380.944599 -11.04345703 379.70361328 C-11.04266144 378.99096313 -11.04186584 378.27831299 -11.04104614 377.54406738 C-10.9140625 375.64697266 -10.9140625 375.64697266 -9.9140625 372.64697266 C-6.96579487 371.66421678 -4.98753746 371.51282541 -1.9140625 371.52197266 C-1.0478125 371.51939453 -0.1815625 371.51681641 0.7109375 371.51416016 C3.0859375 371.64697266 3.0859375 371.64697266 6.0859375 372.64697266 C9.15006689 381.83936081 7.71353485 391.9645037 8.0859375 401.64697266 C41.0859375 401.64697266 74.0859375 401.64697266 108.0859375 401.64697266 C108.0859375 355.11697266 108.0859375 308.58697266 108.0859375 260.64697266 C75.0859375 260.64697266 42.0859375 260.64697266 8.0859375 260.64697266 C7.7559375 272.19697266 7.4259375 283.74697266 7.0859375 295.64697266 C6.5909375 297.13197266 6.5909375 297.13197266 6.0859375 298.64697266 C3.13766987 299.62972853 1.15941246 299.7811199 -1.9140625 299.77197266 C-3.2134375 299.77583984 -3.2134375 299.77583984 -4.5390625 299.77978516 C-6.9140625 299.64697266 -6.9140625 299.64697266 -9.9140625 298.64697266 C-10.89232732 295.71217821 -11.04066993 293.82080114 -11.04345703 290.76416016 C-11.04660919 289.77303223 -11.04976135 288.7819043 -11.05300903 287.76074219 C-11.0509848 286.69194824 -11.04896057 285.6231543 -11.046875 284.52197266 C-11.04783173 283.42353027 -11.04878845 282.32508789 -11.04977417 281.19335938 C-11.05045495 278.86995384 -11.04860775 276.54654641 -11.04443359 274.22314453 C-11.03908395 270.66125223 -11.04438206 267.09948603 -11.05078125 263.53759766 C-11.05012045 261.28238904 -11.04883925 259.02718051 -11.046875 256.77197266 C-11.04889923 255.70317871 -11.05092346 254.63438477 -11.05300903 253.53320312 C-11.04828079 252.04651123 -11.04828079 252.04651123 -11.04345703 250.52978516 C-11.04266144 249.65725098 -11.04186584 248.7847168 -11.04104614 247.88574219 C-10.9140625 245.64697266 -10.9140625 245.64697266 -9.9140625 242.64697266 C-7.03165759 241.68617102 -5.18435648 241.51163139 -2.18745422 241.48875427 C-1.21570251 241.47896545 -0.24395081 241.46917664 0.75724792 241.45909119 C1.82179703 241.45333572 2.88634613 241.44758026 3.9831543 241.44165039 C5.10525299 241.43175079 6.22735168 241.4218512 7.38345337 241.41165161 C11.10066604 241.38000773 14.81789149 241.35526766 18.53515625 241.33056641 C21.1092004 241.30999938 23.68324116 241.28900298 26.25727844 241.26759338 C32.34516108 241.21799671 38.43306188 241.1727381 44.52099305 241.12957102 C51.45203796 241.08018443 58.38303562 241.02527158 65.31403482 240.96989143 C79.57129284 240.8560969 93.82859758 240.7499819 108.0859375 240.64697266 C108.0859375 227.44697266 108.0859375 214.24697266 108.0859375 200.64697266 C55.2859375 200.64697266 2.4859375 200.64697266 -51.9140625 200.64697266 Z " fill="#000000" transform="translate(128.9140625,29.35302734375)"/>
<path d="M0 0 C2.8100346 1.79363911 4.50940468 3.01880935 6 6 C6.61051885 10.43934419 6.68979905 13.87588303 4.3125 17.75 C-0.20095496 21.53760694 -6.51609848 23.11315248 -12 25 C-11.03578125 25.38671875 -10.0715625 25.7734375 -9.078125 26.171875 C-7.8018675 26.6973928 -6.52583769 27.22346381 -5.25 27.75 C-4.29867187 28.12898438 -4.29867187 28.12898438 -3.328125 28.515625 C0.53182113 30.12393589 3.46690473 31.62879419 6 35 C6.80368921 38.4087508 6.63366265 41.56488144 6 45 C3.58900367 48.57996425 2.06705133 49.72016324 -2.09350586 50.8112793 C-7.14398042 51.0552651 -10.76821877 49.73732642 -15.44140625 47.95703125 C-16.32730942 47.63216232 -17.21321259 47.3072934 -18.1259613 46.97257996 C-19.99192724 46.28465474 -21.85510544 45.58912576 -23.71557617 44.88647461 C-26.55073521 43.81693815 -29.39429152 42.77287674 -32.24023438 41.73242188 C-34.0578426 41.05877633 -35.87491887 40.38369334 -37.69140625 39.70703125 C-38.53530411 39.39643265 -39.37920197 39.08583405 -40.24867249 38.76582336 C-51.81525696 34.36948607 -51.81525696 34.36948607 -54 30 C-54.30859375 27.79296875 -54.30859375 27.79296875 -54.4375 25.1875 C-54.49808594 24.33542969 -54.55867187 23.48335937 -54.62109375 22.60546875 C-53.70964206 18.78195758 -51.13720455 17.10396669 -48 15 C-45.05849425 13.52464098 -42.03049553 12.36939465 -38.9453125 11.23046875 C-38.08493378 10.90460281 -37.22455505 10.57873688 -36.33810425 10.24299622 C-34.52662782 9.56073972 -32.71285961 8.88454054 -30.89697266 8.21411133 C-28.13354687 7.19066537 -25.38125089 6.14072019 -22.62890625 5.08789062 C-20.85998115 4.42546243 -19.09046793 3.76460217 -17.3203125 3.10546875 C-16.50547394 2.79304733 -15.69063538 2.48062592 -14.85110474 2.15873718 C-9.6703417 0.2733382 -5.51949005 -0.47710846 0 0 Z " fill="#000000" transform="translate(271,44)"/>
<path d="M0 0 C2.61750697 0.95313289 5.19222872 1.9777944 7.76708984 3.04052734 C8.646875 3.3840625 9.52666016 3.72759766 10.43310547 4.08154297 C18.8391654 7.48353989 18.8391654 7.48353989 21.45458984 11.22802734 C22.25827906 14.63677815 22.08825249 17.79290878 21.45458984 21.22802734 C19.10449581 24.71756091 17.5415617 25.90106388 13.53271484 27.10693359 C7.80187441 27.78933773 2.50332277 25.13811123 -2.73291016 23.10302734 C-3.8125 22.71115234 -4.89208984 22.31927734 -6.00439453 21.91552734 C-15.98073321 18.12563332 -15.98073321 18.12563332 -18.54541016 13.22802734 C-19.31436005 10.13101536 -19.21725447 7.34448165 -18.54541016 4.22802734 C-13.11749331 -2.62828868 -7.95466928 -2.41249417 0 0 Z " fill="#000000" transform="translate(375.54541015625,112.77197265625)"/>
<path d="M0 0 C5.57894737 3.15789474 5.57894737 3.15789474 7 6 C7.23828125 7.98828125 7.23828125 7.98828125 7.3125 10.3125 C7.36857422 11.45138672 7.36857422 11.45138672 7.42578125 12.61328125 C6.77902995 16.23864861 5.74173962 17.46704228 3 20 C-0.82486416 21.94518633 -4.7826106 23.4122103 -8.8125 24.875 C-9.88048828 25.29007813 -10.94847656 25.70515625 -12.04882812 26.1328125 C-17.80151625 28.26739065 -22.02454978 29.79742821 -28 28 C-31.18707586 25.89788613 -32.69636793 24.40084798 -33.515625 20.62109375 C-33.83554566 15.7423037 -33.83554566 15.7423037 -33 13 C-28.34100463 8.03599675 -22.80013635 6.00282208 -16.5 3.6875 C-15.57574219 3.32849609 -14.65148437 2.96949219 -13.69921875 2.59960938 C-4.97224566 -0.67768739 -4.97224566 -0.67768739 0 0 Z " fill="#000000" transform="translate(330,21)"/>
<path d="M0 0 C2.74913342 0.93152455 5.44612215 1.95099851 8.14697266 3.01416016 C9.53239258 3.52366211 9.53239258 3.52366211 10.94580078 4.04345703 C16.07831038 6.02034158 20.05583296 7.80488263 23.45947266 12.32666016 C24.31008222 15.41210106 24.08842239 18.19891013 23.45947266 21.32666016 C21.66553598 24.19695884 20.47683989 25.81797654 17.45947266 27.32666016 C10.48535587 27.917687 5.22259077 26.17837873 -1.22802734 23.63916016 C-2.15164063 23.29949219 -3.07525391 22.95982422 -4.02685547 22.60986328 C-9.15936507 20.63297873 -13.13688765 18.84843769 -16.54052734 14.32666016 C-17.39113691 11.24121925 -17.16947708 8.45441018 -16.54052734 5.32666016 C-12.39773846 -1.30180206 -7.25908768 -1.92394425 0 0 Z " fill="#000000" transform="translate(313.54052734375,89.67333984375)"/>
<path d="M0 0 C2.6457208 1.98094441 3.80399343 3.16866179 4.56640625 6.40234375 C4.56511719 7.23894531 4.56382812 8.07554688 4.5625 8.9375 C4.58441406 9.77152344 4.60632813 10.60554687 4.62890625 11.46484375 C3.68471289 15.27093995 2.07932155 16.57058551 -1 19 C-4.34735452 20.70000722 -7.79161748 22.01766044 -11.3125 23.3125 C-12.22451172 23.67150391 -13.13652344 24.03050781 -14.07617188 24.40039062 C-19.62473421 26.48855925 -24.07021353 27.58638999 -30 27 C-32.8100346 25.20636089 -34.50940468 23.98119065 -36 21 C-36.2734375 19.01171875 -36.2734375 19.01171875 -36.375 16.6875 C-36.42398437 15.92824219 -36.47296875 15.16898438 -36.5234375 14.38671875 C-35.71569965 10.70367527 -33.89995799 9.35762819 -31 7 C-28.25454808 5.47329031 -25.43370681 4.30346996 -22.5 3.1875 C-21.31156494 2.73250122 -21.31156494 2.73250122 -20.09912109 2.26831055 C-13.57196445 -0.07843608 -6.89564199 -1.68767214 0 0 Z " fill="#000000" transform="translate(393,0)"/>
<path d="M0 0 C1.31484375 -0.00644531 2.6296875 -0.01289062 3.984375 -0.01953125 C5.0043457 -0.0038208 5.0043457 -0.0038208 6.04492188 0.01220703 C8.12034681 0.03900242 10.19036676 0.01243363 12.265625 -0.01953125 C14.23789062 -0.00986328 14.23789062 -0.00986328 16.25 0 C17.44882812 0.00563965 18.64765625 0.0112793 19.8828125 0.01708984 C24.01623205 0.84190625 25.51135883 2.42798193 28.125 5.6640625 C28.7890625 8.1640625 28.7890625 8.1640625 28.75 10.6640625 C28.76289063 11.4890625 28.77578125 12.3140625 28.7890625 13.1640625 C27.82020825 16.8115138 26.01119791 18.2804485 23.125 20.6640625 C19.8828125 21.31103516 19.8828125 21.31103516 16.25 21.328125 C14.93515625 21.33457031 13.6203125 21.34101562 12.265625 21.34765625 C11.58564453 21.33718262 10.90566406 21.32670898 10.20507812 21.31591797 C8.12965319 21.28912258 6.05963324 21.31569137 3.984375 21.34765625 C2.01210938 21.33798828 2.01210938 21.33798828 0 21.328125 C-1.79824219 21.31966553 -1.79824219 21.31966553 -3.6328125 21.31103516 C-7.76623205 20.48621875 -9.26135883 18.90014307 -11.875 15.6640625 C-12.5390625 13.1640625 -12.5390625 13.1640625 -12.5 10.6640625 C-12.51289063 9.8390625 -12.52578125 9.0140625 -12.5390625 8.1640625 C-10.81550818 1.67538743 -6.17617823 0.0290546 0 0 Z " fill="#000000" transform="translate(428.875,58.3359375)"/>
<path d="M0 0 C1.31484375 -0.00644531 2.6296875 -0.01289062 3.984375 -0.01953125 C5.0043457 -0.0038208 5.0043457 -0.0038208 6.04492188 0.01220703 C8.12034681 0.03900242 10.19036676 0.01243363 12.265625 -0.01953125 C14.23789062 -0.00986328 14.23789062 -0.00986328 16.25 0 C17.44882812 0.00563965 18.64765625 0.0112793 19.8828125 0.01708984 C24.01623205 0.84190625 25.51135883 2.42798193 28.125 5.6640625 C28.7890625 8.1640625 28.7890625 8.1640625 28.75 10.6640625 C28.76289063 11.4890625 28.77578125 12.3140625 28.7890625 13.1640625 C27.82020825 16.8115138 26.01119791 18.2804485 23.125 20.6640625 C19.8828125 21.31103516 19.8828125 21.31103516 16.25 21.328125 C14.93515625 21.33457031 13.6203125 21.34101562 12.265625 21.34765625 C11.58564453 21.33718262 10.90566406 21.32670898 10.20507812 21.31591797 C8.12965319 21.28912258 6.05963324 21.31569137 3.984375 21.34765625 C2.01210938 21.33798828 2.01210938 21.33798828 0 21.328125 C-1.79824219 21.31966553 -1.79824219 21.31966553 -3.6328125 21.31103516 C-7.76623205 20.48621875 -9.26135883 18.90014307 -11.875 15.6640625 C-12.5390625 13.1640625 -12.5390625 13.1640625 -12.5 10.6640625 C-12.51289063 9.8390625 -12.52578125 9.0140625 -12.5390625 8.1640625 C-10.81550818 1.67538743 -6.17617823 0.0290546 0 0 Z " fill="#000000" transform="translate(368.875,58.3359375)"/>
<path d="M0 0 C1.31484375 -0.00644531 2.6296875 -0.01289062 3.984375 -0.01953125 C5.0043457 -0.0038208 5.0043457 -0.0038208 6.04492188 0.01220703 C8.12034681 0.03900242 10.19036676 0.01243363 12.265625 -0.01953125 C14.23789062 -0.00986328 14.23789062 -0.00986328 16.25 0 C17.44882812 0.00563965 18.64765625 0.0112793 19.8828125 0.01708984 C24.01623205 0.84190625 25.51135883 2.42798193 28.125 5.6640625 C28.7890625 8.1640625 28.7890625 8.1640625 28.75 10.6640625 C28.76289063 11.4890625 28.77578125 12.3140625 28.7890625 13.1640625 C27.82020825 16.8115138 26.01119791 18.2804485 23.125 20.6640625 C19.8828125 21.31103516 19.8828125 21.31103516 16.25 21.328125 C14.93515625 21.33457031 13.6203125 21.34101562 12.265625 21.34765625 C11.58564453 21.33718262 10.90566406 21.32670898 10.20507812 21.31591797 C8.12965319 21.28912258 6.05963324 21.31569137 3.984375 21.34765625 C2.01210938 21.33798828 2.01210938 21.33798828 0 21.328125 C-1.79824219 21.31966553 -1.79824219 21.31966553 -3.6328125 21.31103516 C-7.76623205 20.48621875 -9.26135883 18.90014307 -11.875 15.6640625 C-12.5390625 13.1640625 -12.5390625 13.1640625 -12.5 10.6640625 C-12.51289063 9.8390625 -12.52578125 9.0140625 -12.5390625 8.1640625 C-10.81550818 1.67538743 -6.17617823 0.0290546 0 0 Z " fill="#000000" transform="translate(308.875,58.3359375)"/>
<path d="M0 0 C3.125 1.875 3.125 1.875 5 5 C5.98876625 10.02622846 5.7769173 13.70513784 3.125 18.125 C-1.29486216 20.7769173 -4.97377154 20.98876625 -10 20 C-13.125 18.125 -13.125 18.125 -15 15 C-15.98876625 9.97377154 -15.7769173 6.29486216 -13.125 1.875 C-8.70513784 -0.7769173 -5.02622846 -0.98876625 0 0 Z " fill="#000000" transform="translate(132,355)"/>
</svg>
